<svg width="98" height="200" viewBox="0 0 98 200" fill="none" xmlns="http://www.w3.org/2000/svg">
<path fill-rule="evenodd" clip-rule="evenodd" d="M0.886703 0L6.43585 6.76362H6.43653L0.887039 13.8819L-4.66177 6.76362L0.886703 0ZM-58.3534 49.9749C-56.8163 42.6763 -63.1862 46.4957 -64.9071 47.8608H-64.9075C-62.8059 41.8275 -64.9027 39.5261 -66.6555 37.6033C-67.7543 36.398 -68.7172 35.3413 -68.4264 33.6074C-68.1037 31.6827 -65.473 31.2918 -62.9255 30.9131C-61.3104 30.6732 -59.7285 30.4381 -58.7891 29.8203C-57.6435 29.0673 -56.442 27.7337 -55.2327 26.3911C-51.9062 22.6988 -48.518 18.938 -46.0618 26.9964C-52.3025 33.0494 -48.6692 41.9598 -40.7462 41.9598C-40.7462 41.9598 -40.7021 43.2662 -40.7716 43.37C-50.225 42.8869 -53.521 35.6303 -51.7943 29.8203C-51.4879 28.7928 -61.4884 28.7667 -61.4884 35.3029C-61.4884 37.473 -60.0204 39.0773 -58.5389 40.6965C-57.0299 42.3458 -55.5067 44.0108 -55.5067 46.3044C-55.5067 48.4219 -57.6876 49.9749 -58.3534 49.9749ZM50.7935 29.8203C50.4874 28.7928 60.4872 28.7669 60.4872 35.3029C60.4872 37.473 59.0196 39.0773 57.5381 40.6965C56.0291 42.3458 54.5058 44.0108 54.5058 46.3044C54.5058 48.4219 56.6871 49.9749 57.3563 49.9749C55.8158 42.6763 62.1864 46.4957 63.9063 47.8608C61.805 41.8278 63.9029 39.5264 65.6557 37.604C66.7548 36.3983 67.7179 35.3416 67.426 33.6074C67.1036 31.6824 64.4725 31.2915 61.925 30.9131C60.3099 30.6729 58.7284 30.4381 57.7886 29.8203C56.6434 29.0673 55.4419 27.7337 54.2326 26.3911C50.9061 22.6988 47.5178 18.938 45.0616 26.9964C51.3051 33.0501 47.6721 41.9598 39.746 41.9598C39.746 41.9598 39.7013 43.2662 39.7742 43.37C49.2286 42.8869 52.5239 35.6306 50.7938 29.8203H50.7935ZM24.2058 46.2857C34.3806 46.2501 43.975 46.2165 45.1877 53.0908V53.0901C45.6139 55.498 44.5205 59.1662 43.34 60.2202C43.1281 59.4576 42.0287 56.9625 38.5479 56.4031C20.9708 53.5892 6.2955 82.2906 19.5459 93.8952C19.7443 94.0709 19.6303 94.3969 19.3601 94.3969H-7.14988C-6.90984 94.398 -6.66439 94.5482 -6.54099 94.8953L-3.64809 103.709C-4.0278 103.748 -4.38953 103.809 -4.66177 103.894L6.24804 141.596C6.97796 141.142 7.66245 140.626 8.28287 140.06L9.21146 142.888C6.21516 144.53 -2.73171 145.836 -7.28651 140.942C-8.86094 141.755 -12.9858 140.981 -12.9858 137.136C-12.9858 136.778 -12.9102 136.164 -12.756 135.531C-12.7587 135.71 -12.7472 135.88 -12.7207 136.043C-12.4007 135.788 -12.0206 135.56 -11.5952 135.358C-11.5674 136.257 -10.9988 136.448 -10.0872 136.454C-10.1187 135.907 -10.1167 135.352 -10.0868 134.797C-8.48495 134.33 -6.59184 134.113 -4.89129 134.113C-6.50946 132.471 -7.02172 127.704 -6.19688 124.937C-6.95222 125.764 -7.67605 126.597 -8.34901 127.421C-8.00117 126.56 -7.64892 125.829 -7.34142 125.283C-6.87289 124.448 -6.87289 123.833 -7.14649 122.966C-7.55976 121.662 -7.67367 120.486 -7.48822 119.47C-8.03575 119.47 -8.17407 120.246 -8.3446 121.201C-8.61649 122.728 -8.9701 124.711 -11.2033 124.711C-10.2272 123.155 -10.5527 121.829 -11.4212 120.486C-12.6672 118.546 -12.6316 116.83 -11.4379 115.817C-10.2499 114.811 -7.75164 115.412 -6.15416 117.064C-5.47713 116.254 -3.41484 115.689 -2.32182 115.689C-2.79002 115.082 -2.96292 114.417 -2.81307 113.671C-5.82599 113.927 -11.0341 111.799 -11.0341 108.529C-11.0341 106.074 -7.35159 104.22 -5.06148 103.615L-7.73571 95.3651L-7.73503 95.3644C-7.90895 94.785 -7.53908 94.3983 -7.15361 94.3969H-20.3549C-20.6285 94.3969 -20.7417 94.0709 -20.54 93.8952C-7.29328 82.2906 -21.9683 53.5892 -39.5457 56.4031C-43.0234 56.9625 -44.1266 59.4576 -44.3375 60.2206C-45.5187 59.1662 -46.612 55.4977 -46.1889 53.0908C-44.9738 46.2165 -35.3788 46.2501 -25.2033 46.2857C-18.5435 46.3091 -11.6355 46.3332 -6.66507 44.4223C-6.42097 47.7377 -10.5333 53.0504 -14.463 55.0167C-7.74554 61.1935 -1.71362 73.6387 -0.500587 88.8433C0.716515 73.6387 6.74776 61.1935 13.4659 55.0167C9.53556 53.0504 5.42692 47.7377 5.66797 44.4223C10.6381 46.3332 17.5464 46.3091 24.2058 46.2857ZM-8.34901 127.421C-10.9025 130.544 -12.7241 133.529 -12.756 135.531C-12.6221 134.982 -12.4292 134.419 -12.1756 133.995C-11.6813 133.167 -11.3073 133.646 -11.4633 134.319C-11.5616 134.742 -11.6036 135.083 -11.5952 135.358C-11.1382 135.142 -10.6293 134.955 -10.0868 134.797C-9.94446 132.12 -9.1586 129.422 -8.34901 127.421ZM8.28287 140.06C10.316 138.205 11.6595 135.81 11.6595 133.283C11.6595 130.472 8.37203 131.404 6.77454 133.597C6.6308 132.599 6.49146 131.623 6.35449 130.662L6.35144 130.641V130.64V130.64C6.00021 128.177 5.66322 125.817 5.30555 123.461C5.16927 122.557 5.53406 122.232 6.11108 121.959H6.1104C8.04826 121.055 11.0846 121.787 10.9812 125.309C10.9564 126.106 11.8457 126.106 11.9101 125.291C12.4898 120.018 9.65965 118.498 6.69894 119.116C6.58163 118.538 6.47078 117.982 6.36331 117.443L6.3589 117.421V117.42C6.13175 116.279 5.91885 115.21 5.68695 114.147C5.41404 112.877 5.31335 110.49 6.48163 110.49C7.0339 110.49 6.90744 112.196 6.82845 113.261L6.82811 113.262C6.81693 113.412 6.80709 113.549 6.79997 113.667C6.74674 114.506 6.98643 115.014 7.52752 115.038C7.86519 115.055 8.28591 114.513 8.53679 114.154C10.2323 111.74 10.6252 108.003 8.63986 106.201C6.97898 104.688 2.81847 105.814 1.67493 107.969C1.50237 107.157 0.677185 105.817 0.280869 105.233C-0.103584 104.664 -0.203941 104.273 0.328667 103.773C0.579544 103.531 1.33795 102.582 1.33795 101.601C1.33795 101.021 0.981293 99.9499 -0.153427 99.9499C-1.04845 99.9499 -2.04383 100.73 -2.04383 102.471C-2.04383 102.858 -1.96856 103.273 -1.7709 103.718C-2.14146 103.641 -2.92767 103.635 -3.64809 103.709L8.28287 140.06ZM23.0847 63.732C25.8911 62.7747 30.7822 62.699 34.183 65.9947V65.9944C34.183 62.4707 31.4277 59.3409 30.4669 58.9426C29.2047 59.191 24.9232 61.2369 23.0847 63.732ZM-35.1831 65.9947C-31.779 62.699 -26.8876 62.7747 -24.0845 63.732C-25.9159 61.2369 -30.2046 59.191 -31.463 58.9426C-32.4238 59.3409 -35.1828 62.4707 -35.1828 65.9944L-35.1831 65.9947ZM34.1799 22.2746V22.2745V22.2742V22.2746ZM34.1799 22.2745L30.0191 16.6583L25.8623 22.2746L30.0191 27.7639L34.1799 22.2745ZM59.1549 147.511V147.512V147.511V147.511ZM53.6057 141.596L59.1549 147.511L53.6057 152.701L48.0565 147.512L53.6057 141.596ZM-26.8618 22.2745L-31.0233 16.6583L-35.1804 22.2745L-31.0233 27.7639L-26.8625 22.2745H-26.8618ZM-23.8431 44.4216H-37.0973C-37.1352 44.3724 -39.4243 41.3933 -40.001 39.9115C-42.0914 34.5359 -39.423 32.0286 -35.5167 32.0286L-30.4717 36.4139L-25.4267 32.0286C-21.5198 32.0286 -18.852 34.5359 -20.9417 39.9115C-21.2085 40.5988 -21.8449 41.6087 -22.4538 42.4958C-17.7505 41.8763 -11.7474 38.7886 -10.4269 32.1736C-10.4269 32.1736 -13.9053 26.879 -14.7745 24.7363C-17.9115 17.0313 -13.9093 13.8819 -8.05677 13.8819L-0.500923 22.4005L7.05525 13.8819C12.9078 13.8819 16.91 17.0316 13.7767 24.7363C12.9041 26.8787 9.42876 32.1733 9.42876 32.1733C10.7459 38.7883 16.7493 41.876 21.4526 42.4954C20.8474 41.6083 20.2077 40.5988 19.9409 39.9115C17.8474 34.5356 20.5223 32.0284 24.4248 32.0284L29.4706 36.4133L34.5159 32.0284C38.4188 32.0284 41.094 34.5356 38.9998 39.9115C38.4188 41.4051 36.1002 44.422 36.1002 44.422H22.845C11.6968 44.422 6.68606 37.8621 5.17096 32.1733H-6.16874C-7.68418 37.8618 -12.699 44.4216 -23.8431 44.4216ZM95.9326 82.6007C93.5031 83.8684 79.2539 90.7481 61.0005 88.2035C61.1897 87.3062 61.3497 86.4025 61.4812 85.4944C73.6299 83.9963 83.505 81.8733 89.7983 78.2656C96.9717 74.1506 100.109 64.328 96.4879 57.0199C96.394 56.8357 96.1343 56.8027 96.0045 56.9571C94.0208 59.3111 81.5437 73.2981 61.8874 77.6465C61.8369 76.5972 61.744 75.5507 61.608 74.5095C71.155 68.9294 80.4754 62.5002 84.915 56.6216C91.6239 47.7329 91.0066 36.3963 84.6227 30.6157C84.5563 30.5572 84.4688 30.5308 84.3824 30.5433C84.2959 30.556 84.2186 30.6063 84.1708 30.6815C82.1512 34.1149 63.2455 65.608 42.4877 79.2029C42.2345 79.3701 41.9792 79.5336 41.7219 79.6938C41.1272 80.0659 41.0625 80.8624 41.5693 81.3363C43.9618 83.5712 45.4494 86.6824 45.4494 90.1355C45.4494 96.1399 40.9584 101.134 35.0221 102.216C32.0051 102.818 27.6503 102.644 23.4674 101.219C23.2793 101.157 23.0847 101.285 23.0847 101.479V120.496C23.0847 120.802 23.5363 120.878 23.6431 120.584C26.1854 113.643 33.7975 112.167 37.1261 112.167C38.3245 119.587 40.4644 125.734 43.2441 129.041C47.7704 134.417 55.1618 134.342 58.3673 130.625C58.4198 130.563 58.4426 130.48 58.429 130.399C58.4148 130.319 58.3656 130.249 58.2954 130.21C56.4122 129.094 45.6373 122.277 43.4807 111.104C44.3324 110.802 45.163 110.459 45.959 110.054C49.4367 115.986 54.499 121.269 58.5748 123.287C65.4204 126.672 71.6876 125.026 74.4676 120.071C74.5683 119.897 74.4449 119.68 74.2401 119.66C70.0057 119.311 57.0095 115.473 51.476 106.121C52.1096 105.521 52.7297 104.896 53.3077 104.231C59.0976 108.773 67.2847 112.789 73.1461 113.609C80.0042 114.57 87.7753 112.315 87.9638 104.096C87.9669 103.931 87.8245 103.796 87.656 103.806C85.2164 103.957 69.0737 104.682 57.5716 97.8772C57.971 97.0942 58.3436 96.2973 58.6887 95.4873C58.6887 95.4873 76.0688 99.7209 84.3037 98.3182C92.4874 96.9259 97.2809 90.6385 96.355 82.8174C96.3293 82.6224 96.1086 82.5077 95.9329 82.6L95.9326 82.6007ZM-58.5721 97.8772C-58.9725 97.0946 -59.3461 96.2973 -59.6923 95.4873V95.4866C-59.6923 95.4866 -77.0722 99.7202 -85.3043 98.3172C-93.4879 96.9253 -98.2772 90.6443 -97.3555 82.8225C-97.3329 82.6251 -97.1119 82.5067 -96.93 82.602C-94.4816 83.8796 -80.2384 90.743 -62.0041 88.2015C-62.1932 87.3038 -62.3536 86.4005 -62.4848 85.4923C-74.6332 83.9943 -84.5086 81.871 -90.802 78.2632C-97.9693 74.1482 -101.106 64.3318 -97.4922 57.0205C-97.4016 56.8363 -97.1348 56.8031 -97.0017 56.9646C-94.998 59.3345 -82.5312 73.2991 -62.891 77.6444C-62.8415 76.5952 -62.7499 75.5486 -62.615 74.5075C-72.1595 68.9274 -81.4791 62.4982 -85.9184 56.6192C-92.6274 47.7339 -92.0073 36.4004 -85.6327 30.6163C-85.4929 30.4914 -85.2658 30.5241 -85.1712 30.6854C-83.1352 34.1424 -64.2382 65.6131 -43.494 79.2015C-43.2384 79.3684 -42.9807 79.5319 -42.7214 79.6921C-42.1301 80.0639 -42.062 80.8607 -42.5718 81.3316C-44.9616 83.5668 -46.452 86.681 -46.452 90.1348C-46.452 96.1389 -41.9609 101.133 -36.0216 102.216C-33.0076 102.818 -28.6532 102.643 -24.4703 101.218C-24.2822 101.156 -24.0845 101.284 -24.0845 101.478V120.496C-24.0845 120.801 -24.5357 120.878 -24.6459 120.584C-27.1886 113.643 -34.7973 112.167 -38.1289 112.167C-39.3274 119.587 -41.4639 125.733 -44.2443 129.041C-48.7706 134.417 -56.165 134.342 -59.3702 130.625C-59.4224 130.563 -59.4448 130.48 -59.4309 130.4C-59.417 130.319 -59.3685 130.249 -59.299 130.209C-57.4154 129.094 -46.6405 122.277 -44.4839 111.104C-45.3315 110.801 -46.1628 110.459 -46.9615 110.054C-50.4396 115.986 -55.5022 121.269 -59.5746 123.287C-66.4232 126.671 -72.6909 125.025 -75.4708 120.071C-75.5684 119.897 -75.4482 119.679 -75.2437 119.66C-71.0088 119.31 -58.0161 115.472 -52.4798 106.12C-53.1125 105.521 -53.7295 104.896 -54.3109 104.231C-60.1008 108.773 -68.2907 112.79 -74.1495 113.609C-81.0075 114.57 -88.7751 112.315 -88.9674 104.099C-88.9705 103.938 -88.8276 103.796 -88.6555 103.806C-86.2071 103.961 -70.0707 104.679 -58.5721 97.8772ZM55.6663 155.595L49.3238 150.559C46.7934 152.079 44.9328 154.495 44.2107 157.325C40.396 157.865 29.9937 155.534 31.005 153.988C42.4053 137.808 33.6853 128.175 23.206 128.71V139.577C23.206 143.067 20.1877 145.894 16.4696 145.894H9.23349C4.04234 145.894 0.662949 151.16 0.662949 151.16C0.662949 151.16 -2.71577 145.894 -7.90726 145.894H-15.1441C-18.8642 145.894 -21.8761 143.067 -21.8761 139.577V128.711C-32.3557 128.175 -41.0825 137.808 -29.6787 153.988C-28.6769 155.518 -39.3684 157.969 -44.3836 157.348C-45.7041 155.967 -47.6101 155.095 -49.7439 155.095C-50.6508 155.096 -51.5506 155.258 -52.4015 155.576C-52.4015 155.576 -72.1079 136.749 -72.4689 136.565L-72.3063 136.184C-71.1844 134.067 -72.9015 131.758 -73.9876 131.92C-72.726 130.393 -72.667 123.707 -79.6667 122.161C-79.4618 123.504 -79.3579 126.245 -79.3579 126.245C-79.3579 126.245 -84.76 123.297 -87.4727 125.841C-89.8565 128.689 -86.5486 133.854 -86.5486 133.854C-86.5486 133.854 -89.3133 133.921 -90.6761 133.805C-88.6722 140.642 -81.9526 140.158 -80.4987 138.809C-80.5935 139.897 -78.1633 141.446 -76.1047 140.203L-75.2005 139.761C-75.0409 139.977 -55.8481 158.275 -55.8481 158.275C-56.7295 159.596 -57.1489 161.216 -56.8597 162.943C-56.4044 165.642 -54.176 167.879 -51.3299 168.46C-49.3201 168.867 -47.4307 168.473 -45.915 167.579L-40.8343 172.337C-40.3821 172.751 -39.7708 173.009 -39.0877 172.961C-37.8455 172.876 -36.9149 171.859 -37.0095 170.694C-37.0485 170.168 -37.3149 169.716 -37.6828 169.374C-37.7641 169.283 -42.8573 164.512 -42.8573 164.512C-38.6558 161.538 -30.8267 159.444 -24.3283 159.444C-23.1868 159.444 -22.6504 158.469 -23.0434 157.513C-25.9874 150.369 -19.6579 145.195 -13.1106 149.407C-10.2547 151.244 -7.35295 154.863 -5.1676 160.9C-15.9106 163.525 -29.3984 170.755 -32.1275 178.649C-33.1782 181.696 -29.7076 185.851 -25.4925 186.687C-25.4175 186.704 -25.3396 186.69 -25.2755 186.648C-25.2114 186.606 -25.1667 186.54 -25.1511 186.464C-22.9488 174.681 -10.3909 165.9 -3.85659 164.408L-3.61215 165.07L-3.43755 165.542L-3.30703 165.893C-10.4235 169.29 -17.3254 176.453 -19.2964 184.969C-20.2006 188.869 -15.8909 192.384 -12.3329 193.346C-12.1539 193.395 -11.9783 193.269 -11.9684 193.095C-11.2921 182.325 -6.57929 173.18 -2.35742 169.018C-2.24181 169.832 -2.15503 170.649 -2.09705 171.469C-2.09705 171.469 -6.41962 183.623 -6.41962 192.491C-6.41962 196.616 -0.343956 199.496 0.55378 199.9C1.67561 199.496 7.74823 196.616 7.74823 192.491C7.74823 183.623 3.42566 171.469 3.42566 171.469C3.48465 170.649 3.57279 169.832 3.68908 169.018C7.9079 173.18 12.6237 182.322 13.297 193.091C13.3069 193.265 13.4855 193.395 13.6608 193.346C17.2229 192.384 21.5292 188.869 20.6281 184.969C18.6533 176.453 11.7552 169.29 4.63835 165.894C4.80583 165.439 4.85838 165.294 4.91499 165.14C4.96856 164.994 5.02551 164.84 5.18486 164.409C11.7226 165.9 24.2774 174.681 26.4793 186.464C26.4953 186.539 26.54 186.605 26.6041 186.647C26.6682 186.689 26.7465 186.703 26.8211 186.687C31.0328 185.851 34.5098 181.696 33.4527 178.649C30.7304 170.755 17.2389 163.525 6.49621 160.9C8.68461 154.863 11.586 151.244 14.4416 149.408C20.9858 145.195 27.315 150.37 24.3713 157.514C23.9777 158.469 24.5113 159.444 25.6565 159.444C33.0066 159.444 42.0616 162.123 45.6454 165.716C47.9359 169.184 52.1669 171.401 56.942 170.927C62.3668 170.391 66.7904 166.278 67.4016 161.194C67.9353 156.739 65.6519 152.739 62.0125 150.56L55.6663 155.596V155.595Z" fill="white" fill-opacity="0.15"/>
</svg>
